<svg id="Layer_1" data-name="Layer 1" xmlns="http://www.w3.org/2000/svg" viewBox="0 0 19.24 19.24"><defs><style>.cls-1{fill:#1b335f;}</style></defs><title>facebook</title><path class="cls-1" d="M10,19.62h0A9.62,9.62,0,0,1,10,.38h0A9.65,9.65,0,0,1,19.62,10h0A9.63,9.63,0,0,1,10,19.62ZM10,.84h0a9.16,9.16,0,0,0,0,18.32h0A9.18,9.18,0,0,0,19.16,10h0A9.17,9.17,0,0,0,10,.84Z" transform="translate(-0.38 -0.38)"/><path class="cls-1" d="M12.33,10.33H10.81v5.44H8.55V10.34H7.48V8.41h.9c.13,0,.17,0,.17-.16a12.49,12.49,0,0,1,0-1.37,2.06,2.06,0,0,1,.84-1.61,1.83,1.83,0,0,1,1-.36c.68,0,1.36,0,2.06,0V6.75H11.23c-.24,0-.39.14-.4.37,0,.42,0,.84,0,1.27h1.71Z" transform="translate(-0.38 -0.38)"/></svg>