<svg id="Layer_1" data-name="Layer 1" xmlns="http://www.w3.org/2000/svg" xmlns:xlink="http://www.w3.org/1999/xlink" viewBox="0 0 196.2 196.2"><defs><style>.cls-1{fill:#1a1818;}.cls-2,.cls-4{fill:#fff;}.cls-3{fill:url(#linear-gradient);}.cls-4{fill-rule:evenodd;}.cls-5{fill:url(#linear-gradient-2);}.cls-6{fill:url(#linear-gradient-3);}.cls-7{fill:url(#linear-gradient-4);}.cls-8{fill:url(#linear-gradient-5);}.cls-9{fill:url(#linear-gradient-6);}.cls-10{fill:url(#linear-gradient-7);}.cls-11{fill:url(#linear-gradient-8);}.cls-12{fill:url(#linear-gradient-9);}.cls-13{fill:url(#linear-gradient-10);}</style><linearGradient id="linear-gradient" x1="102.41" y1="83.1" x2="67.48" y2="83.1" gradientUnits="userSpaceOnUse"><stop offset="0" stop-color="#00c7e6"/><stop offset="1" stop-color="#ff1370"/></linearGradient><linearGradient id="linear-gradient-2" x1="36.02" y1="246.87" x2="36.02" y2="164.75" xlink:href="#linear-gradient"/><linearGradient id="linear-gradient-3" x1="51.23" y1="332.5" x2="51.23" y2="165.84" xlink:href="#linear-gradient"/><linearGradient id="linear-gradient-4" x1="63.94" y1="304.3" x2="63.94" y2="137.64" xlink:href="#linear-gradient"/><linearGradient id="linear-gradient-5" x1="89.05" y1="188.9" x2="89.05" y2="106.77" xlink:href="#linear-gradient"/><linearGradient id="linear-gradient-6" x1="105.02" y1="178.42" x2="105.02" y2="81.92" xlink:href="#linear-gradient"/><linearGradient id="linear-gradient-7" x1="121.2" y1="157.64" x2="121.2" y2="61.13" xlink:href="#linear-gradient"/><linearGradient id="linear-gradient-8" x1="136.68" y1="139.87" x2="136.68" y2="13.07" xlink:href="#linear-gradient"/><linearGradient id="linear-gradient-9" x1="150.98" y1="116.54" x2="150.98" y2="-4.77" xlink:href="#linear-gradient"/><linearGradient id="linear-gradient-10" x1="165.57" y1="92.98" x2="165.57" y2="-28.33" xlink:href="#linear-gradient"/></defs><title>hypt</title><rect class="cls-1" width="196.2" height="196.2" rx="12.28"/><path class="cls-2" d="M50.55,100.11V88.29h8v30.63h-8V106.37H39.05v12.55h-8V88.29h8v11.82Z" transform="translate(-1.86 -2.74)"/><rect class="cls-2" x="79.55" y="103.2" width="7.96" height="13.27"/><path class="cls-2" d="M113,88.29h12.19c6.58,0,11.13,3,11.13,10.07,0,7.24-3.9,10.41-10.84,10.41H121v10.15h-8Zm8,14.06h1.33c2.89,0,5.73,0,5.73-3.74s-2.64-3.9-5.73-3.9H121Z" transform="translate(-1.86 -2.74)"/><path class="cls-2" d="M162.25,118.92h-8V95H147.7V88.29h21.13V95h-6.58Z" transform="translate(-1.86 -2.74)"/><path class="cls-3" d="M102.41,81.84a21.36,21.36,0,0,1-2.8,10.32l-1,1.82-4.11-6.2a14.25,14.25,0,0,0,1.35-5.94,10.92,10.92,0,0,0-1.3-5.3,9.42,9.42,0,0,0-3.66-3.64A13.24,13.24,0,0,0,79,72.9a9.42,9.42,0,0,0-3.66,3.64,10.92,10.92,0,0,0-1.31,5.3A14.65,14.65,0,0,0,76,89c1.19,2.15,2.48,4.27,3.84,6.37l-4,6c-2-3-3.91-6-5.63-9.13a21.36,21.36,0,0,1-2.8-10.32,17.39,17.39,0,0,1,2.16-8.49,15.86,15.86,0,0,1,6.21-6.19,19.58,19.58,0,0,1,18.19,0,15.93,15.93,0,0,1,6.21,6.19A17.39,17.39,0,0,1,102.41,81.84Z" transform="translate(-1.86 -2.74)"/><path class="cls-4" d="M97.1,96.4c-1.94,3.11-4.44,6.86-6.5,9.89-.77,1.15-1.54,2.28-2.91,4.34l-2.75,4.12-2.74-4.12c-1.37-2.06-2.14-3.19-2.92-4.34-.46-.68-1.35-2-1.82-2.69l3.93-5.92c1,1.43,2.36,3.51,3.33,4.93l.22.34.23-.34c2.58-3.8,5.61-8.34,7.92-12.26Z" transform="translate(-1.86 -2.74)"/><circle class="cls-2" cx="83.09" cy="80.37" r="5.16"/><path class="cls-5" d="M38.22,134.1H33.87l-1.13,2.47H31.09l5-10.8L41,136.57H39.28Zm-.63-1.44-1.51-3.45-1.57,3.45Z" transform="translate(-1.86 -2.74)"/><path class="cls-6" d="M50.5,126.41v8.72h3v1.44H49V126.41Z" transform="translate(-1.86 -2.74)"/><path class="cls-7" d="M63.21,126.41v8.72h3v1.44H61.68V126.41Z" transform="translate(-1.86 -2.74)"/><path class="cls-8" d="M91.25,134.1H86.9l-1.13,2.47H84.12l5-10.8L94,136.57H92.31Zm-.63-1.44-1.5-3.45-1.58,3.45Z" transform="translate(-1.86 -2.74)"/><path class="cls-9" d="M109,127v1.81a4.26,4.26,0,0,0-2.75-1.11,3.52,3.52,0,0,0-2.64,1.13,3.76,3.76,0,0,0-1.08,2.73,3.7,3.7,0,0,0,1.08,2.7,3.58,3.58,0,0,0,2.65,1.1,3.31,3.31,0,0,0,1.37-.26,4.37,4.37,0,0,0,.66-.36c.22-.15.46-.33.71-.54V136a5.5,5.5,0,0,1-2.76.74,5.21,5.21,0,0,1-5.25-5.21,5.17,5.17,0,0,1,1.28-3.46A5.26,5.26,0,0,1,109,127Z" transform="translate(-1.86 -2.74)"/><path class="cls-10" d="M125.21,127v1.81a4.28,4.28,0,0,0-2.75-1.11,3.49,3.49,0,0,0-2.64,1.13,3.76,3.76,0,0,0-1.08,2.73,3.7,3.7,0,0,0,1.08,2.7,3.57,3.57,0,0,0,2.64,1.1,3.36,3.36,0,0,0,1.38-.26,3.87,3.87,0,0,0,.65-.36,7.49,7.49,0,0,0,.72-.54V136a5.51,5.51,0,0,1-2.77.74,5.22,5.22,0,0,1-5.25-5.21,5.18,5.18,0,0,1,1.29-3.46,5.11,5.11,0,0,1,4.08-1.87A5.17,5.17,0,0,1,125.21,127Z" transform="translate(-1.86 -2.74)"/><path class="cls-11" d="M139.48,127.85h-4.07v2.44h4v1.44h-4v3.4h4.07v1.44h-5.6V126.41h5.6Z" transform="translate(-1.86 -2.74)"/><path class="cls-12" d="M154,127.93l-1.25.73a2.21,2.21,0,0,0-.66-.79,1.78,1.78,0,0,0-1.91.15,1.14,1.14,0,0,0-.42.9c0,.49.37.89,1.1,1.2l1,.41a4.32,4.32,0,0,1,1.81,1.22,2.76,2.76,0,0,1,.57,1.77,3.08,3.08,0,0,1-.94,2.31,3.16,3.16,0,0,1-2.33.92,3.12,3.12,0,0,1-2.18-.78,3.58,3.58,0,0,1-1.06-2.2l1.55-.35a2.59,2.59,0,0,0,.37,1.24,1.58,1.58,0,0,0,1.38.66,1.61,1.61,0,0,0,1.19-.48,1.65,1.65,0,0,0,.47-1.22,1.53,1.53,0,0,0-.08-.54,1.2,1.2,0,0,0-.26-.45,1.76,1.76,0,0,0-.45-.39,4.32,4.32,0,0,0-.65-.35l-1-.41c-1.39-.58-2.09-1.44-2.09-2.57a2.45,2.45,0,0,1,.87-1.92,3.17,3.17,0,0,1,2.18-.78A3,3,0,0,1,154,127.93Z" transform="translate(-1.86 -2.74)"/><path class="cls-13" d="M168.57,127.93l-1.25.73a2.21,2.21,0,0,0-.66-.79,1.78,1.78,0,0,0-1.91.15,1.14,1.14,0,0,0-.42.9q0,.74,1.11,1.2l1,.41a4.32,4.32,0,0,1,1.81,1.22,2.76,2.76,0,0,1,.57,1.77,3.1,3.1,0,0,1-.93,2.31,3.2,3.2,0,0,1-2.34.92,3.12,3.12,0,0,1-2.18-.78,3.58,3.58,0,0,1-1.06-2.2l1.55-.35a2.59,2.59,0,0,0,.37,1.24,1.58,1.58,0,0,0,1.38.66,1.61,1.61,0,0,0,1.19-.48,1.65,1.65,0,0,0,.47-1.22,1.53,1.53,0,0,0-.08-.54,1.33,1.33,0,0,0-.25-.45,2,2,0,0,0-.46-.39,4.32,4.32,0,0,0-.65-.35l-1-.41c-1.39-.58-2.09-1.44-2.09-2.57a2.43,2.43,0,0,1,.88-1.92,3.14,3.14,0,0,1,2.17-.78A3,3,0,0,1,168.57,127.93Z" transform="translate(-1.86 -2.74)"/></svg>