<svg id="Layer_1" data-name="Layer 1" xmlns="http://www.w3.org/2000/svg" viewBox="0 0 19.21 19.21"><defs><style>.cls-1{fill:#1b335f;}</style></defs><title>instagram</title><path class="cls-1" d="M10,19.6A9.6,9.6,0,1,1,19.6,10,9.6,9.6,0,0,1,10,19.6ZM10,.85A9.15,9.15,0,1,0,19.15,10,9.17,9.17,0,0,0,10,.85Z" transform="translate(-0.4 -0.4)"/><path class="cls-1" d="M12.53,4.37H7.47a3.1,3.1,0,0,0-3.1,3.1v5.06a3.1,3.1,0,0,0,3.1,3.1h5.06a3.1,3.1,0,0,0,3.1-3.1V7.47A3.1,3.1,0,0,0,12.53,4.37Zm2.19,8.14a2.21,2.21,0,0,1-2.21,2.21h-5a2.21,2.21,0,0,1-2.21-2.21v-5A2.21,2.21,0,0,1,7.49,5.28h5a2.21,2.21,0,0,1,2.21,2.21Z" transform="translate(-0.4 -0.4)"/><path class="cls-1" d="M10,7a3,3,0,1,0,3,3A3,3,0,0,0,10,7Zm0,4.91A1.94,1.94,0,1,1,11.94,10,1.94,1.94,0,0,1,10,11.94Z" transform="translate(-0.4 -0.4)"/><path class="cls-1" d="M13.74,6.93a.67.67,0,0,1-1.34,0,.67.67,0,0,1,1.34,0Z" transform="translate(-0.4 -0.4)"/></svg>