<svg id="Layer_1" data-name="Layer 1" xmlns="http://www.w3.org/2000/svg" viewBox="0 0 19.21 19.21"><defs><style>.cls-1{fill:#1b335f;}</style></defs><title>linkedin</title><path class="cls-1" d="M10,19.6A9.6,9.6,0,1,1,19.6,10,9.6,9.6,0,0,1,10,19.6ZM10,.85A9.15,9.15,0,1,0,19.15,10,9.17,9.17,0,0,0,10,.85Z" transform="translate(-0.4 -0.4)"/><rect class="cls-1" x="4.68" y="7.19" width="2.2" height="6.95"/><path class="cls-1" d="M7.43,5.37a1.26,1.26,0,0,1-2.52,0,1.26,1.26,0,1,1,2.52,0Z" transform="translate(-0.4 -0.4)"/><path class="cls-1" d="M13.79,7.57a2.52,2.52,0,0,0-3,.94V7.59H8.62v7h2.14V11c0-1.14.5-1.67,1.29-1.67s1.13.46,1.13,1.44v3.78h2.18V10.71C15.36,9.36,15.11,8,13.79,7.57Z" transform="translate(-0.4 -0.4)"/></svg>