<svg id="Layer_1" data-name="Layer 1" xmlns="http://www.w3.org/2000/svg" xmlns:xlink="http://www.w3.org/1999/xlink" viewBox="0 0 196.2 196.2"><defs><style>.cls-1{fill:#1a1818;}.cls-2,.cls-4{fill:#fff;}.cls-3{fill:url(#linear-gradient);}.cls-4{fill-rule:evenodd;}.cls-5{fill:url(#linear-gradient-2);}.cls-6{fill:url(#linear-gradient-3);}.cls-7{fill:url(#linear-gradient-4);}.cls-8{fill:url(#linear-gradient-5);}.cls-9{fill:url(#linear-gradient-6);}.cls-10{fill:url(#linear-gradient-7);}.cls-11{fill:url(#linear-gradient-8);}.cls-12{fill:url(#linear-gradient-9);}.cls-13{fill:url(#linear-gradient-10);}</style><linearGradient id="linear-gradient" x1="102.17" y1="85.74" x2="74.08" y2="85.74" gradientUnits="userSpaceOnUse"><stop offset="0" stop-color="#00c7e6"/><stop offset="1" stop-color="#ff1370"/></linearGradient><linearGradient id="linear-gradient-2" x1="48.77" y1="217.48" x2="48.77" y2="151.41" xlink:href="#linear-gradient"/><linearGradient id="linear-gradient-3" x1="61" y1="286.36" x2="61" y2="152.29" xlink:href="#linear-gradient"/><linearGradient id="linear-gradient-4" x1="71.22" y1="263.68" x2="71.22" y2="129.6" xlink:href="#linear-gradient"/><linearGradient id="linear-gradient-5" x1="91.43" y1="170.84" x2="91.43" y2="104.77" xlink:href="#linear-gradient"/><linearGradient id="linear-gradient-6" x1="104.27" y1="162.41" x2="104.27" y2="84.78" xlink:href="#linear-gradient"/><linearGradient id="linear-gradient-7" x1="117.29" y1="145.69" x2="117.29" y2="68.06" xlink:href="#linear-gradient"/><linearGradient id="linear-gradient-8" x1="129.74" y1="131.4" x2="129.74" y2="29.4" xlink:href="#linear-gradient"/><linearGradient id="linear-gradient-9" x1="141.25" y1="112.63" x2="141.25" y2="15.05" xlink:href="#linear-gradient"/><linearGradient id="linear-gradient-10" x1="152.98" y1="93.68" x2="152.98" y2="-3.91" xlink:href="#linear-gradient"/></defs><title>logosv</title><rect class="cls-1" width="196.2" height="196.2" rx="12.28"/><path class="cls-2" d="M60.45,99.42V89.9h6.41v24.65H60.45v-10.1H51.2v10.1H44.79V89.9H51.2v9.52Z" transform="translate(-2.1 -1.9)"/><rect class="cls-2" x="83.18" y="102.2" width="6.41" height="10.68"/><path class="cls-2" d="M110.72,89.9h9.81c5.29,0,9,2.45,9,8.11,0,5.82-3.14,8.37-8.73,8.37h-3.63v8.17h-6.41Zm6.41,11.31h1.08c2.32,0,4.61,0,4.61-3s-2.13-3.14-4.61-3.14h-1.08Z" transform="translate(-2.1 -1.9)"/><path class="cls-2" d="M150.31,114.55H143.9V95.33h-5.29V89.9h17v5.43h-5.29Z" transform="translate(-2.1 -1.9)"/><path class="cls-3" d="M102.17,84.72A17.15,17.15,0,0,1,99.92,93l-.84,1.46-3.3-5a11.64,11.64,0,0,0,1.08-4.78,8.67,8.67,0,0,0-1-4.26,7.46,7.46,0,0,0-2.94-2.93,10.63,10.63,0,0,0-9.5,0,7.53,7.53,0,0,0-2.94,2.93,8.67,8.67,0,0,0-1.05,4.26A11.81,11.81,0,0,0,81,90.45c1,1.72,2,3.43,3.09,5.12l-3.18,4.79C79.26,98,77.71,95.5,76.33,93a17.15,17.15,0,0,1-2.25-8.3,13.89,13.89,0,0,1,1.73-6.83,12.78,12.78,0,0,1,5-5,15.78,15.78,0,0,1,14.64,0,12.78,12.78,0,0,1,5,5A13.9,13.9,0,0,1,102.17,84.72Z" transform="translate(-2.1 -1.9)"/><path class="cls-4" d="M97.9,96.43c-1.56,2.5-3.57,5.52-5.22,8-.63.92-1.25,1.83-2.35,3.49l-2.21,3.32-2.2-3.32c-1.11-1.66-1.73-2.57-2.35-3.49l-1.47-2.17,3.16-4.76,2.68,4,.18.27.18-.27c2.08-3.06,4.52-6.72,6.37-9.87Z" transform="translate(-2.1 -1.9)"/><circle class="cls-2" cx="86.02" cy="83.84" r="4.15"/><path class="cls-5" d="M50.53,126.76H47l-.91,2H44.79l4.05-8.68,3.9,8.68H51.39ZM50,125.6l-1.21-2.78-1.27,2.78Z" transform="translate(-2.1 -1.9)"/><path class="cls-6" d="M60.41,120.57v7h2.4v1.15H59.18v-8.17Z" transform="translate(-2.1 -1.9)"/><path class="cls-7" d="M70.64,120.57v7H73v1.15H69.4v-8.17Z" transform="translate(-2.1 -1.9)"/><path class="cls-8" d="M93.19,126.76h-3.5l-.91,2H87.46l4-8.68,3.9,8.68H94.05Zm-.5-1.16-1.21-2.78-1.27,2.78Z" transform="translate(-2.1 -1.9)"/><path class="cls-9" d="M107.5,121v1.46a3.46,3.46,0,0,0-2.22-.89,2.83,2.83,0,0,0-2.12.9,3.06,3.06,0,0,0-.87,2.21,3,3,0,0,0,.87,2.17,2.91,2.91,0,0,0,2.13.88,2.68,2.68,0,0,0,1.11-.21,3.48,3.48,0,0,0,.52-.29,6.14,6.14,0,0,0,.58-.43v1.49a4.56,4.56,0,0,1-2.23.59,4.1,4.1,0,0,1-3-1.22,4,4,0,0,1-1.23-3,4.21,4.21,0,0,1,1-2.79,4.11,4.11,0,0,1,3.29-1.5A4.2,4.2,0,0,1,107.5,121Z" transform="translate(-2.1 -1.9)"/><path class="cls-10" d="M120.51,121v1.46a3.44,3.44,0,0,0-2.21-.89,2.81,2.81,0,0,0-2.12.9,3.06,3.06,0,0,0-.87,2.21,3,3,0,0,0,.87,2.17,2.87,2.87,0,0,0,2.12.88,2.62,2.62,0,0,0,1.11-.21,3.55,3.55,0,0,0,.53-.29,6.09,6.09,0,0,0,.57-.43v1.49a4.56,4.56,0,0,1-2.22.59,4.2,4.2,0,0,1-4.23-4.19,4.22,4.22,0,0,1,1-2.79,4.09,4.09,0,0,1,3.28-1.5A4.14,4.14,0,0,1,120.51,121Z" transform="translate(-2.1 -1.9)"/><path class="cls-11" d="M132,121.73h-3.27v2h3.18v1.16h-3.18v2.73H132v1.15h-4.5v-8.17H132Z" transform="translate(-2.1 -1.9)"/><path class="cls-12" d="M143.65,121.79l-1,.59a1.67,1.67,0,0,0-.53-.63,1.43,1.43,0,0,0-1.54.12.91.91,0,0,0-.33.72c0,.4.29.72.88,1l.82.34a3.33,3.33,0,0,1,1.45,1,2.19,2.19,0,0,1,.47,1.42,2.47,2.47,0,0,1-.76,1.86,2.55,2.55,0,0,1-1.88.74,2.51,2.51,0,0,1-1.75-.63,2.86,2.86,0,0,1-.85-1.77l1.25-.27a2.07,2.07,0,0,0,.29,1,1.3,1.3,0,0,0,1.11.53,1.27,1.27,0,0,0,1-.39,1.33,1.33,0,0,0,.38-1,1.49,1.49,0,0,0-.06-.43,1.36,1.36,0,0,0-.21-.37,1.87,1.87,0,0,0-.36-.31,3.72,3.72,0,0,0-.53-.28l-.79-.33q-1.68-.7-1.68-2.07a2,2,0,0,1,.7-1.54,2.55,2.55,0,0,1,1.76-.63A2.44,2.44,0,0,1,143.65,121.79Z" transform="translate(-2.1 -1.9)"/><path class="cls-13" d="M155.39,121.79l-1,.59a1.76,1.76,0,0,0-.53-.63,1.31,1.31,0,0,0-.69-.17,1.29,1.29,0,0,0-.85.29.92.92,0,0,0-.34.72c0,.4.3.72.89,1l.82.34a3.33,3.33,0,0,1,1.45,1,2.18,2.18,0,0,1,.46,1.42,2.49,2.49,0,0,1-.75,1.86,2.55,2.55,0,0,1-1.88.74,2.49,2.49,0,0,1-1.75-.63,2.92,2.92,0,0,1-.86-1.77l1.25-.27a2.18,2.18,0,0,0,.3,1,1.4,1.4,0,0,0,2.07.14,1.33,1.33,0,0,0,.38-1,1.21,1.21,0,0,0-.07-.43,1.11,1.11,0,0,0-.2-.37,2,2,0,0,0-.37-.31,2.88,2.88,0,0,0-.53-.28l-.78-.33q-1.68-.7-1.68-2.07a2,2,0,0,1,.7-1.54,2.54,2.54,0,0,1,1.75-.63A2.44,2.44,0,0,1,155.39,121.79Z" transform="translate(-2.1 -1.9)"/></svg>