<svg id="Layer_1" data-name="Layer 1" xmlns="http://www.w3.org/2000/svg" viewBox="0 0 19.21 19.21"><defs><style>.cls-1{fill:#1b335f;}</style></defs><title>twitter</title><path class="cls-1" d="M10,19.6A9.6,9.6,0,1,1,19.6,10,9.6,9.6,0,0,1,10,19.6ZM10,.85A9.15,9.15,0,1,0,19.15,10,9.17,9.17,0,0,0,10,.85Z" transform="translate(-0.4 -0.4)"/><path class="cls-1" d="M14.06,7.1,14.85,6a6.21,6.21,0,0,1-1.44.55,2.06,2.06,0,0,0-1.75-.68A2,2,0,0,0,9.9,7.46a2.13,2.13,0,0,0,.06,1,4.88,4.88,0,0,1-1.73-.26C5.84,7.37,5.5,6.16,5.5,6.16a2.48,2.48,0,0,0-.32,1.57A1.57,1.57,0,0,0,6,9a.72.72,0,0,1-.48,0,1.74,1.74,0,0,1-.46-.57,2.4,2.4,0,0,0,.45,1.83c.65.66.85.62.85.62a.36.36,0,0,1-.19.08.92.92,0,0,1-.43,0,1.45,1.45,0,0,0,.68,1.15,2.91,2.91,0,0,0,1.44.54,5,5,0,0,1-1.26.55c-.86.27-1.64.44-1.64.44,7.61,2.05,8.78-1.77,8.81-4.34a6.57,6.57,0,0,1,.1-1.08,1.64,1.64,0,0,0,0-.22A2.06,2.06,0,0,0,15,6.66Z" transform="translate(-0.4 -0.4)"/></svg>